# xmcd
#
# Track frame offsets:
#        150
#        10515
#        26025
#        41562
#        60430
#        86427
#
# Disc length: 4440 seconds
#
# Revision: 0
# Processed by: cddbd v1.5.1PL0 Copyright (c) Steve Scherf et al.
# Submitted via: ExactAudioCopy v0.95b1
#
DISCID=39115606
DTITLE=DAMNDOG - NO WANDER!
DYEAR=2004
DGENRE=Punk
TTITLE0=SUPERMAN
TTITLE1=GIVE A SHOUT
TTITLE2=WISHBONE
TTITLE3=FAKE
TTITLE4=BREEZE
TTITLE5=Data Track
EXTD=
EXTT0=
EXTT1=
EXTT2=
EXTT3=
EXTT4=
EXTT5=
PLAYORDER=
